M48
;Layer_Color=9474304
;FILE_FORMAT=4:4
METRIC,LZ
;TYPE=PLATED
T01F00S00C0.2000
T02F00S00C0.2540
T03F00S00C0.8000
T04F00S00C0.8100
T05F00S00C0.9906
T06F00S00C1.0160
T07F00S00C1.0700
%
T01
X01684272Y0039089
X01698272
X01705272Y0039789
X01698272Y0040489
X01705272Y0041189
X01698272Y0041889
X01691272Y0041189
X01684272Y0041889
Y0040489
X01691272Y0039789
X01677272
Y0041189
T02
X0138557Y0028702
X0137795Y0032131
X01395742Y00343035
X0140589Y0037846
X0138557
X01428981Y00377574
X0144018Y0037846
X0145796Y0037465
X0148463Y00363855
X0149098Y0038608
X0150368
X0151638Y00370205
X0156464Y0038481
X015748Y0037592
Y0033147
X0156083Y0032893
X0156337Y003175
X015621Y0030099
X0157353Y0029972
X0158242Y0030988
X0149987Y0028448
X014859Y002921
X0141478Y003048
X0133223Y0036195
X0133096Y0037084
X0133858Y0038227
X0134239Y0038989
X0133223Y0039624
X01393825Y00446405
X0148209Y0039878
X0151496Y0041641
X0155829Y0048133
T03
X0142494Y0045339
X0144494
T04
X0142367Y0026543
X0144907
X0147447
X0149987
X0152527
X0155067
X0157607
X0160147
T05
X0128905Y0026035
Y0030535
X0135405
Y0026035
X0135532Y004572
Y005022
X0129032
Y004572
T06
X016383Y0026543
X016637
X016891
X017145
X017399
T07
X0159004Y0050546
X0161544
X0164084
X0166624
X0169164
X0171704
M30
